<?xml version="1.0" encoding="iso-8859-1"?>
<!-- Generator: Adobe Illustrator 19.0.0, SVG Export Plug-In . SVG Version: 6.00 Build 0)  -->
<svg version="1.1" id="Layer_1" xmlns="http://www.w3.org/2000/svg" xmlns:xlink="http://www.w3.org/1999/xlink" x="0px" y="0px"
	 viewBox="0 0 512 512" style="enable-background:new 0 0 512 512;" xml:space="preserve">
<g>
	<g>
		<path d="M384,243.2H128c-14.14,0-25.6,11.46-25.6,25.6V448c0,14.14,11.46,25.6,25.6,25.6h256c14.14,0,25.6-11.46,25.6-25.6V268.8
			C409.6,254.66,398.14,243.2,384,243.2z M384,448H128V268.8h256V448z"/>
	</g>
</g>
<g>
	<g>
		<path d="M302.071,337.92l-51.2-38.4c-4.514-3.388-9.924-5.12-15.36-5.12c-3.9,0-7.825,0.887-11.443,2.705
			c-8.67,4.335-14.148,13.201-14.148,22.895v76.8c0,9.694,5.478,18.56,14.148,22.895c3.618,1.809,7.543,2.705,11.443,2.705
			c5.444,0,10.846-1.732,15.36-5.12l51.2-38.4c6.443-4.838,10.24-12.424,10.24-20.48S308.514,342.758,302.071,337.92z M235.52,396.8
			V320l51.2,38.4L235.52,396.8z"/>
	</g>
</g>
<g>
	<g>
		<path d="M391.305,142.234C374.98,81.749,320.162,38.4,256,38.4S137.028,81.749,120.695,142.234C52.54,152.013,0,210.782,0,281.6
			c0,54.579,31.283,101.905,76.8,125.252v-29.508c-30.857-20.668-51.2-55.817-51.2-95.744c0-63.625,51.576-115.2,115.2-115.2
			c0.435,0,0.845,0.119,1.28,0.128C148.463,108.945,196.719,64,256,64s107.537,44.945,113.92,102.528
			c0.435-0.009,0.845-0.128,1.28-0.128c63.625,0,115.2,51.575,115.2,115.2c0,39.927-20.343,75.076-51.2,95.744v29.508
			C480.717,383.497,512,336.179,512,281.6C512,210.782,459.46,152.013,391.305,142.234z"/>
	</g>
</g>
<g>
</g>
<g>
</g>
<g>
</g>
<g>
</g>
<g>
</g>
<g>
</g>
<g>
</g>
<g>
</g>
<g>
</g>
<g>
</g>
<g>
</g>
<g>
</g>
<g>
</g>
<g>
</g>
<g>
</g>
</svg>
